<svg xmlns="http://www.w3.org/2000/svg" viewBox="0 0 24 23.39"><defs><style>.cls-1{fill:#af2d00;}</style></defs><g id="Layer_2" data-name="Layer 2"><g id="Layer_3" data-name="Layer 3"><path class="cls-1" d="M8.24,23.39a1,1,0,0,0,.63-1V19.62c0-.11,0-.21,0-.32H7a1.88,1.88,0,0,1-1.77-.93c-.37-.68-.52-1.83-1.46-2.46-.16-.1-.06-.26.26-.26a2.85,2.85,0,0,1,1.41,1,2.21,2.21,0,0,0,1.77,1,5.72,5.72,0,0,0,2.41-.29,2.48,2.48,0,0,1,1.87-1.28h0c-3-.09-4.85-1.08-5.73-2.59a32.52,32.52,0,0,0-4.52.36,4.5,4.5,0,0,1-.08-.51,30.19,30.19,0,0,1,4.35-.37,4,4,0,0,1-.15-.45,34.48,34.48,0,0,0-4.27.05c0-.17,0-.34,0-.52a33.18,33.18,0,0,1,4.18-.05,5.42,5.42,0,0,1-.06-.81,4.5,4.5,0,0,1,.88-2.61c-.26-.89-.62-2.76.11-3.44A4.38,4.38,0,0,1,9,6.31a7.78,7.78,0,0,1,3-.57,7.34,7.34,0,0,1,2.92.57,4.38,4.38,0,0,1,2.87-1.09c.78.73.37,2.61.11,3.44a4,4,0,0,1,.83,2.61,4.32,4.32,0,0,1-.06.73,34.26,34.26,0,0,1,4.28.06c0,.17,0,.35,0,.52a34,34,0,0,0-4.36-.05c-.05.18-.11.35-.17.51a34.67,34.67,0,0,1,4.46.36c0,.18-.05.35-.08.52a31.8,31.8,0,0,0-4.64-.36c-.86,1.5-2.72,2.48-5.62,2.6h0c1.36,0,2.61,2,2.61,3.45v2.81a1,1,0,0,0,.63,1,12,12,0,1,0-7.52,0Z"/></g></g></svg>